<svg width="2692" height="780" viewBox="0 0 2692 780" fill="none" xmlns="http://www.w3.org/2000/svg">
<path d="M377.946 605.901C564.16 605.901 715.116 487.529 715.116 341.511C715.116 195.492 564.16 77.1208 377.946 77.1208C191.732 77.1208 40.7759 195.492 40.7759 341.511C40.7759 487.529 191.732 605.901 377.946 605.901Z" fill="#F7931E"/>
<path d="M635.386 254.661C635.386 254.661 501.456 350.031 607.986 456.031C714.516 562.031 455.276 435.841 455.276 433.381C455.276 430.921 419.546 231.741 419.546 231.741L506.426 145.681L645.856 206.331L635.386 254.661Z" fill="#19191b"/>
<path d="M377.986 52.0308V696.281C377.986 696.281 382.156 734.401 423.146 727.021C464.136 719.641 713.246 516.781 713.246 516.781C713.246 516.781 735.246 457.781 653.306 457.781C571.366 457.781 467.306 443.031 473.596 358.191C479.886 273.351 512.416 166.391 595.476 214.341C678.536 262.291 624.936 347.131 665.916 347.131C706.896 347.131 827.786 81.5408 377.986 52.0308ZM120.496 254.661C120.496 254.661 254.426 350.031 147.896 456.031C41.3656 562.031 300.606 435.841 300.606 433.381C300.606 430.921 336.336 231.741 336.336 231.741L249.456 145.681L110.036 206.331L120.496 254.661Z" fill="#222325"/>
<path d="M377.986 52.0308V696.281C377.986 696.281 373.806 734.401 332.816 727.021C291.826 719.641 42.6858 516.781 42.6858 516.781C42.6858 516.781 20.6858 457.781 102.616 457.781C184.546 457.781 288.616 443.031 282.336 358.191C276.056 273.351 243.506 166.391 160.446 214.341C77.3858 262.291 130.986 347.111 89.9858 347.111C48.9858 347.111 -71.9042 81.5408 377.986 52.0308Z" fill="#292a2e"/>
<path d="M807.811 299.28C807.811 274.32 813.211 252.12 824.011 232.68C834.811 213 849.811 197.76 869.011 186.96C888.451 175.92 910.411 170.4 934.891 170.4C964.891 170.4 990.571 178.32 1011.93 194.16C1033.29 210 1047.57 231.6 1054.77 258.96H987.091C982.051 248.4 974.851 240.36 965.491 234.84C956.371 229.32 945.931 226.56 934.171 226.56C915.211 226.56 899.851 233.16 888.091 246.36C876.331 259.56 870.451 277.2 870.451 299.28C870.451 321.36 876.331 339 888.091 352.2C899.851 365.4 915.211 372 934.171 372C945.931 372 956.371 369.24 965.491 363.72C974.851 358.2 982.051 350.16 987.091 339.6H1054.77C1047.57 366.96 1033.29 388.56 1011.93 404.4C990.571 420 964.891 427.8 934.891 427.8C910.411 427.8 888.451 422.4 869.011 411.6C849.811 400.56 834.811 385.32 824.011 365.88C813.211 346.44 807.811 324.24 807.811 299.28ZM1080.23 325.2C1080.23 304.56 1084.07 286.44 1091.75 270.84C1099.67 255.24 1110.35 243.24 1123.79 234.84C1137.23 226.44 1152.23 222.24 1168.79 222.24C1182.95 222.24 1195.31 225.12 1205.87 230.88C1216.67 236.64 1224.95 244.2 1230.71 253.56V225.12H1292.27V426H1230.71V397.56C1224.71 406.92 1216.31 414.48 1205.51 420.24C1194.95 426 1182.59 428.88 1168.43 428.88C1152.11 428.88 1137.23 424.68 1123.79 416.28C1110.35 407.64 1099.67 395.52 1091.75 379.92C1084.07 364.08 1080.23 345.84 1080.23 325.2ZM1230.71 325.56C1230.71 310.2 1226.39 298.08 1217.75 289.2C1209.35 280.32 1199.03 275.88 1186.79 275.88C1174.55 275.88 1164.11 280.32 1155.47 289.2C1147.07 297.84 1142.87 309.84 1142.87 325.2C1142.87 340.56 1147.07 352.8 1155.47 361.92C1164.11 370.8 1174.55 375.24 1186.79 375.24C1199.03 375.24 1209.35 370.8 1217.75 361.92C1226.39 353.04 1230.71 340.92 1230.71 325.56ZM1398.37 258.6C1405.57 247.56 1414.57 238.92 1425.37 232.68C1436.17 226.2 1448.17 222.96 1461.37 222.96V288.12H1444.45C1429.09 288.12 1417.57 291.48 1409.89 298.2C1402.21 304.68 1398.37 316.2 1398.37 332.76V426H1336.81V225.12H1398.37V258.6ZM1478.55 325.2C1478.55 304.56 1482.39 286.44 1490.07 270.84C1497.99 255.24 1508.67 243.24 1522.11 234.84C1535.55 226.44 1550.55 222.24 1567.11 222.24C1581.27 222.24 1593.63 225.12 1604.19 230.88C1614.99 236.64 1623.27 244.2 1629.03 253.56V225.12H1690.59V426H1629.03V397.56C1623.03 406.92 1614.63 414.48 1603.83 420.24C1593.27 426 1580.91 428.88 1566.75 428.88C1550.43 428.88 1535.55 424.68 1522.11 416.28C1508.67 407.64 1497.99 395.52 1490.07 379.92C1482.39 364.08 1478.55 345.84 1478.55 325.2ZM1629.03 325.56C1629.03 310.2 1624.71 298.08 1616.07 289.2C1607.67 280.32 1597.35 275.88 1585.11 275.88C1572.87 275.88 1562.43 280.32 1553.79 289.2C1545.39 297.84 1541.19 309.84 1541.19 325.2C1541.19 340.56 1545.39 352.8 1553.79 361.92C1562.43 370.8 1572.87 375.24 1585.11 375.24C1597.35 375.24 1607.67 370.8 1616.07 361.92C1624.71 353.04 1629.03 340.92 1629.03 325.56ZM1991.45 222.96C2016.41 222.96 2036.21 230.52 2050.85 245.64C2065.73 260.76 2073.17 281.76 2073.17 308.64V426H2011.97V316.92C2011.97 303.96 2008.49 294 2001.53 287.04C1994.81 279.84 1985.45 276.24 1973.45 276.24C1961.45 276.24 1951.97 279.84 1945.01 287.04C1938.29 294 1934.93 303.96 1934.93 316.92V426H1873.73V316.92C1873.73 303.96 1870.25 294 1863.29 287.04C1856.57 279.84 1847.21 276.24 1835.21 276.24C1823.21 276.24 1813.73 279.84 1806.77 287.04C1800.05 294 1796.69 303.96 1796.69 316.92V426H1735.13V225.12H1796.69V250.32C1802.93 241.92 1811.09 235.32 1821.17 230.52C1831.25 225.48 1842.65 222.96 1855.37 222.96C1870.49 222.96 1883.93 226.2 1895.69 232.68C1907.69 239.16 1917.05 248.4 1923.77 260.4C1930.73 249.36 1940.21 240.36 1952.21 233.4C1964.21 226.44 1977.29 222.96 1991.45 222.96ZM2305.58 322.32C2305.58 328.08 2305.22 334.08 2304.5 340.32H2165.18C2166.14 352.8 2170.1 362.4 2177.06 369.12C2184.26 375.6 2193.02 378.84 2203.34 378.84C2218.7 378.84 2229.38 372.36 2235.38 359.4H2300.9C2297.54 372.6 2291.42 384.48 2282.54 395.04C2273.9 405.6 2262.98 413.88 2249.78 419.88C2236.58 425.88 2221.82 428.88 2205.5 428.88C2185.82 428.88 2168.3 424.68 2152.94 416.28C2137.58 407.88 2125.58 395.88 2116.94 380.28C2108.3 364.68 2103.98 346.44 2103.98 325.56C2103.98 304.68 2108.18 286.44 2116.58 270.84C2125.22 255.24 2137.22 243.24 2152.58 234.84C2167.94 226.44 2185.58 222.24 2205.5 222.24C2224.94 222.24 2242.22 226.32 2257.34 234.48C2272.46 242.64 2284.22 254.28 2292.62 269.4C2301.26 284.52 2305.58 302.16 2305.58 322.32ZM2242.58 306.12C2242.58 295.56 2238.98 287.16 2231.78 280.92C2224.58 274.68 2215.58 271.56 2204.78 271.56C2194.46 271.56 2185.7 274.56 2178.5 280.56C2171.54 286.56 2167.22 295.08 2165.54 306.12H2242.58ZM2399.62 159.6V426H2338.06V159.6H2399.62ZM2535.67 428.88C2515.99 428.88 2498.23 424.68 2482.39 416.28C2466.79 407.88 2454.43 395.88 2445.31 380.28C2436.43 364.68 2431.99 346.44 2431.99 325.56C2431.99 304.92 2436.55 286.8 2445.67 271.2C2454.79 255.36 2467.27 243.24 2483.11 234.84C2498.95 226.44 2516.71 222.24 2536.39 222.24C2556.07 222.24 2573.83 226.44 2589.67 234.84C2605.51 243.24 2617.99 255.36 2627.11 271.2C2636.23 286.8 2640.79 304.92 2640.79 325.56C2640.79 346.2 2636.11 364.44 2626.75 380.28C2617.63 395.88 2605.03 407.88 2588.95 416.28C2573.11 424.68 2555.35 428.88 2535.67 428.88ZM2535.67 375.6C2547.43 375.6 2557.39 371.28 2565.55 362.64C2573.95 354 2578.15 341.64 2578.15 325.56C2578.15 309.48 2574.07 297.12 2565.91 288.48C2557.99 279.84 2548.15 275.52 2536.39 275.52C2524.39 275.52 2514.43 279.84 2506.51 288.48C2498.59 296.88 2494.63 309.24 2494.63 325.56C2494.63 341.64 2498.47 354 2506.15 362.64C2514.07 371.28 2523.91 375.6 2535.67 375.6Z" fill="#F7931E"/>
<path d="M887.606 486.222C905.292 486.222 920.747 489.727 933.972 496.738C947.197 503.749 957.394 513.627 964.564 526.374C971.893 538.961 975.558 553.54 975.558 570.111C975.558 586.522 971.893 601.101 964.564 613.848C957.394 626.595 947.117 636.473 933.733 643.484C920.508 650.495 905.133 654 887.606 654H824.749V486.222H887.606ZM884.977 618.628C900.432 618.628 912.462 614.406 921.066 605.961C929.67 597.516 933.972 585.566 933.972 570.111C933.972 554.656 929.67 542.626 921.066 534.022C912.462 525.418 900.432 521.116 884.977 521.116H865.618V618.628H884.977ZM1124.11 585.168C1124.11 588.992 1123.87 592.975 1123.39 597.118H1030.9C1031.54 605.403 1034.17 611.777 1038.79 616.238C1043.57 620.54 1049.38 622.691 1056.24 622.691C1066.43 622.691 1073.52 618.389 1077.51 609.785H1121C1118.77 618.548 1114.71 626.435 1108.82 633.446C1103.08 640.457 1095.83 645.954 1087.07 649.937C1078.3 653.92 1068.5 655.912 1057.67 655.912C1044.6 655.912 1032.97 653.124 1022.78 647.547C1012.58 641.97 1004.61 634.004 998.876 623.647C993.14 613.29 990.272 601.181 990.272 587.319C990.272 573.457 993.06 561.348 998.637 550.991C1004.37 540.634 1012.34 532.668 1022.54 527.091C1032.73 521.514 1044.44 518.726 1057.67 518.726C1070.58 518.726 1082.05 521.435 1092.09 526.852C1102.12 532.269 1109.93 539.997 1115.51 550.035C1121.24 560.073 1124.11 571.784 1124.11 585.168ZM1082.29 574.413C1082.29 567.402 1079.9 561.826 1075.12 557.683C1070.34 553.54 1064.36 551.469 1057.19 551.469C1050.34 551.469 1044.52 553.461 1039.74 557.444C1035.12 561.427 1032.26 567.084 1031.14 574.413H1082.29ZM1199.93 655.912C1188.29 655.912 1177.94 653.92 1168.86 649.937C1159.77 645.954 1152.6 640.536 1147.35 633.685C1142.09 626.674 1139.14 618.867 1138.5 610.263H1178.89C1179.37 614.884 1181.52 618.628 1185.35 621.496C1189.17 624.364 1193.87 625.798 1199.45 625.798C1204.55 625.798 1208.45 624.842 1211.16 622.93C1214.03 620.859 1215.46 618.23 1215.46 615.043C1215.46 611.219 1213.47 608.431 1209.49 606.678C1205.5 604.766 1199.05 602.695 1190.13 600.464C1180.57 598.233 1172.6 595.923 1166.23 593.533C1159.85 590.984 1154.36 587.08 1149.74 581.822C1145.11 576.405 1142.8 569.155 1142.8 560.073C1142.8 552.425 1144.88 545.494 1149.02 539.28C1153.32 532.907 1159.53 527.888 1167.66 524.223C1175.95 520.558 1185.74 518.726 1197.06 518.726C1213.79 518.726 1226.93 522.869 1236.49 531.154C1246.21 539.439 1251.79 550.433 1253.22 564.136H1215.46C1214.82 559.515 1212.75 555.851 1209.25 553.142C1205.9 550.433 1201.44 549.079 1195.86 549.079C1191.08 549.079 1187.42 550.035 1184.87 551.947C1182.32 553.7 1181.04 556.169 1181.04 559.356C1181.04 563.18 1183.04 566.048 1187.02 567.96C1191.16 569.872 1197.54 571.784 1206.14 573.696C1216.02 576.245 1224.06 578.795 1230.28 581.344C1236.49 583.734 1241.91 587.717 1246.53 593.294C1251.31 598.711 1253.78 606.041 1253.94 615.282C1253.94 623.089 1251.71 630.1 1247.25 636.314C1242.95 642.369 1236.65 647.149 1228.37 650.654C1220.24 654.159 1210.76 655.912 1199.93 655.912ZM1299.5 506.776C1292.33 506.776 1286.43 504.705 1281.81 500.562C1277.35 496.26 1275.12 491.002 1275.12 484.788C1275.12 478.415 1277.35 473.157 1281.81 469.014C1286.43 464.712 1292.33 462.561 1299.5 462.561C1306.51 462.561 1312.24 464.712 1316.7 469.014C1321.33 473.157 1323.64 478.415 1323.64 484.788C1323.64 491.002 1321.33 496.26 1316.7 500.562C1312.24 504.705 1306.51 506.776 1299.5 506.776ZM1319.81 520.638V654H1278.94V520.638H1319.81ZM1400.1 518.726C1409.5 518.726 1417.7 520.638 1424.71 524.462C1431.88 528.286 1437.38 533.305 1441.2 539.519V520.638H1482.07V653.761C1482.07 666.03 1479.6 677.103 1474.66 686.982C1469.88 697.02 1462.48 704.987 1452.44 710.882C1442.56 716.777 1430.21 719.725 1415.39 719.725C1395.64 719.725 1379.62 715.025 1367.35 705.624C1355.09 696.383 1348.07 683.795 1346.32 667.862H1386.71C1387.99 672.961 1391.01 676.944 1395.79 679.812C1400.57 682.839 1406.47 684.353 1413.48 684.353C1421.93 684.353 1428.62 681.883 1433.56 676.944C1438.66 672.164 1441.2 664.436 1441.2 653.761V634.88C1437.22 641.094 1431.72 646.193 1424.71 650.176C1417.7 654 1409.5 655.912 1400.1 655.912C1389.1 655.912 1379.14 653.124 1370.22 647.547C1361.3 641.811 1354.21 633.765 1348.95 623.408C1343.85 612.892 1341.3 600.783 1341.3 587.08C1341.3 573.377 1343.85 561.348 1348.95 550.991C1354.21 540.634 1361.3 532.668 1370.22 527.091C1379.14 521.514 1389.1 518.726 1400.1 518.726ZM1441.2 587.319C1441.2 577.122 1438.34 569.075 1432.6 563.18C1427.02 557.285 1420.17 554.337 1412.05 554.337C1403.92 554.337 1396.99 557.285 1391.25 563.18C1385.68 568.916 1382.89 576.883 1382.89 587.08C1382.89 597.277 1385.68 605.403 1391.25 611.458C1396.99 617.353 1403.92 620.301 1412.05 620.301C1420.17 620.301 1427.02 617.353 1432.6 611.458C1438.34 605.563 1441.2 597.516 1441.2 587.319ZM1592.9 519.204C1608.52 519.204 1620.94 524.303 1630.18 534.5C1639.59 544.538 1644.29 558.4 1644.29 576.086V654H1603.66V581.583C1603.66 572.66 1601.35 565.729 1596.72 560.79C1592.1 555.851 1585.89 553.381 1578.08 553.381C1570.28 553.381 1564.06 555.851 1559.44 560.79C1554.82 565.729 1552.51 572.66 1552.51 581.583V654H1511.64V520.638H1552.51V538.324C1556.65 532.429 1562.23 527.808 1569.24 524.462C1576.25 520.957 1584.14 519.204 1592.9 519.204ZM1784.04 655.673C1771.77 655.673 1760.78 653.681 1751.06 649.698C1741.34 645.715 1733.53 639.819 1727.64 632.012C1721.9 624.205 1718.87 614.804 1718.55 603.81H1762.05C1762.69 610.024 1764.84 614.804 1768.5 618.15C1772.17 621.337 1776.95 622.93 1782.84 622.93C1788.9 622.93 1793.68 621.576 1797.18 618.867C1800.69 615.999 1802.44 612.095 1802.44 607.156C1802.44 603.013 1801.01 599.588 1798.14 596.879C1795.43 594.17 1792.01 591.94 1787.86 590.187C1783.88 588.434 1778.14 586.443 1770.66 584.212C1759.82 580.866 1750.98 577.52 1744.13 574.174C1737.27 570.828 1731.38 565.889 1726.44 559.356C1721.5 552.823 1719.03 544.299 1719.03 533.783C1719.03 518.168 1724.69 505.979 1736 497.216C1747.31 488.293 1762.05 483.832 1780.22 483.832C1798.7 483.832 1813.6 488.293 1824.91 497.216C1836.22 505.979 1842.28 518.248 1843.07 534.022H1798.86C1798.54 528.605 1796.55 524.382 1792.88 521.355C1789.22 518.168 1784.52 516.575 1778.78 516.575C1773.84 516.575 1769.86 517.929 1766.83 520.638C1763.8 523.187 1762.29 526.932 1762.29 531.871C1762.29 537.288 1764.84 541.511 1769.94 544.538C1775.04 547.565 1783 550.832 1793.84 554.337C1804.67 558.002 1813.44 561.507 1820.13 564.853C1826.98 568.199 1832.87 573.059 1837.81 579.432C1842.75 585.805 1845.22 594.011 1845.22 604.049C1845.22 613.609 1842.75 622.293 1837.81 630.1C1833.03 637.907 1826.02 644.121 1816.78 648.742C1807.54 653.363 1796.63 655.673 1784.04 655.673ZM2006.6 520.638L1922.95 717.335H1878.98L1909.57 649.459L1855.32 520.638H1900.97L1931.8 604.049L1962.39 520.638H2006.6ZM2075.64 655.912C2064 655.912 2053.65 653.92 2044.57 649.937C2035.48 645.954 2028.31 640.536 2023.06 633.685C2017.8 626.674 2014.85 618.867 2014.21 610.263H2054.6C2055.08 614.884 2057.23 618.628 2061.06 621.496C2064.88 624.364 2069.58 625.798 2075.16 625.798C2080.26 625.798 2084.16 624.842 2086.87 622.93C2089.74 620.859 2091.17 618.23 2091.17 615.043C2091.17 611.219 2089.18 608.431 2085.2 606.678C2081.21 604.766 2074.76 602.695 2065.84 600.464C2056.28 598.233 2048.31 595.923 2041.94 593.533C2035.56 590.984 2030.07 587.08 2025.45 581.822C2020.83 576.405 2018.51 569.155 2018.51 560.073C2018.51 552.425 2020.59 545.494 2024.73 539.28C2029.03 532.907 2035.24 527.888 2043.37 524.223C2051.66 520.558 2061.46 518.726 2072.77 518.726C2089.5 518.726 2102.64 522.869 2112.2 531.154C2121.92 539.439 2127.5 550.433 2128.93 564.136H2091.17C2090.53 559.515 2088.46 555.851 2084.96 553.142C2081.61 550.433 2077.15 549.079 2071.57 549.079C2066.79 549.079 2063.13 550.035 2060.58 551.947C2058.03 553.7 2056.75 556.169 2056.75 559.356C2056.75 563.18 2058.75 566.048 2062.73 567.96C2066.87 569.872 2073.25 571.784 2081.85 573.696C2091.73 576.245 2099.77 578.795 2105.99 581.344C2112.2 583.734 2117.62 587.717 2122.24 593.294C2127.02 598.711 2129.49 606.041 2129.65 615.282C2129.65 623.089 2127.42 630.1 2122.96 636.314C2118.66 642.369 2112.36 647.149 2104.08 650.654C2095.95 654.159 2086.47 655.912 2075.64 655.912ZM2228.98 619.345V654H2208.19C2193.37 654 2181.82 650.415 2173.53 643.245C2165.25 635.916 2161.11 624.045 2161.11 607.634V554.576H2144.85V520.638H2161.11V488.134H2201.98V520.638H2228.74V554.576H2201.98V608.112C2201.98 612.095 2202.93 614.963 2204.84 616.716C2206.76 618.469 2209.94 619.345 2214.4 619.345H2228.98ZM2377.46 585.168C2377.46 588.992 2377.22 592.975 2376.74 597.118H2284.25C2284.89 605.403 2287.52 611.777 2292.14 616.238C2296.92 620.54 2302.73 622.691 2309.59 622.691C2319.78 622.691 2326.87 618.389 2330.86 609.785H2374.35C2372.12 618.548 2368.06 626.435 2362.17 633.446C2356.43 640.457 2349.18 645.954 2340.42 649.937C2331.65 653.92 2321.85 655.912 2311.02 655.912C2297.95 655.912 2286.32 653.124 2276.13 647.547C2265.93 641.97 2257.96 634.004 2252.23 623.647C2246.49 613.29 2243.62 601.181 2243.62 587.319C2243.62 573.457 2246.41 561.348 2251.99 550.991C2257.72 540.634 2265.69 532.668 2275.89 527.091C2286.08 521.514 2297.79 518.726 2311.02 518.726C2323.93 518.726 2335.4 521.435 2345.44 526.852C2355.47 532.269 2363.28 539.997 2368.86 550.035C2374.59 560.073 2377.46 571.784 2377.46 585.168ZM2335.64 574.413C2335.64 567.402 2333.25 561.826 2328.47 557.683C2323.69 553.54 2317.71 551.469 2310.54 551.469C2303.69 551.469 2297.87 553.461 2293.09 557.444C2288.47 561.427 2285.61 567.084 2284.49 574.413H2335.64ZM2569.19 519.204C2585.76 519.204 2598.91 524.223 2608.62 534.261C2618.5 544.299 2623.44 558.241 2623.44 576.086V654H2582.81V581.583C2582.81 572.979 2580.5 566.367 2575.88 561.746C2571.42 556.966 2565.21 554.576 2557.24 554.576C2549.27 554.576 2542.98 556.966 2538.36 561.746C2533.9 566.367 2531.67 572.979 2531.67 581.583V654H2491.04V581.583C2491.04 572.979 2488.73 566.367 2484.11 561.746C2479.64 556.966 2473.43 554.576 2465.46 554.576C2457.5 554.576 2451.2 556.966 2446.58 561.746C2442.12 566.367 2439.89 572.979 2439.89 581.583V654H2399.02V520.638H2439.89V537.368C2444.03 531.791 2449.45 527.41 2456.14 524.223C2462.83 520.877 2470.4 519.204 2478.85 519.204C2488.89 519.204 2497.81 521.355 2505.62 525.657C2513.58 529.959 2519.8 536.093 2524.26 544.06C2528.88 536.731 2535.17 530.756 2543.14 526.135C2551.11 521.514 2559.79 519.204 2569.19 519.204Z" fill="#F7931E"/>
</svg>
