<svg xmlns="http://www.w3.org/2000/svg" viewBox="0 0 675.91 675.94">
  <g data-name="Layer 2">
    <g data-name="Layer 1">
      <ellipse cx="337.96" cy="289.48" rx="337.17" ry="264.39" style="fill:oklch(83.1% 0.168 80.9)"/>
      <path d="M595.4 202.63S461.47 298 568 404s-152.71-20.19-152.71-22.65-35.73-201.64-35.73-201.64l86.88-86.06 139.43 60.65Z" style="fill:oklch(17.8% 0.0042 277.7)"/>
      <path d="M338 0v644.25s4.17 38.12 45.16 30.74 290.1-210.24 290.1-210.24 22-59-59.94-59-186-14.75-179.71-99.59 38.82-191.8 121.88-143.85 29.46 132.79 70.44 132.79S787.8 29.51 338 0M80.51 202.63S214.44 298 107.91 404s152.71-20.19 152.71-22.65 35.73-201.64 35.73-201.64l-86.88-86.06L70.05 154.3Z" style="fill:oklch(21.5% 0.004 277.7)"/>
      <path d="M338 0v644.25s-4.18 38.12-45.17 30.74S2.7 464.75 2.7 464.75s-22-59 59.93-59 186-14.75 179.72-99.59-38.83-191.8-121.89-143.85S91 295.08 50 295.08-111.89 29.51 338 0" style="fill:oklch(25.5% 0.0055 277.7)"/>
    </g>
  </g>
</svg>
